<svg width="28" height="28" viewBox="0 0 28 28" fill="none" xmlns="http://www.w3.org/2000/svg">
<g clip-path="url(#clip0_670_564)">
<path d="M13.9987 2.33398C7.55287 2.33398 2.33203 7.55482 2.33203 14.0007C2.33203 20.4465 7.55287 25.6673 13.9987 25.6673C20.4445 25.6673 25.6654 20.4465 25.6654 14.0007C25.6654 7.55482 20.4445 2.33398 13.9987 2.33398ZM13.9987 5.83398C15.9295 5.83398 17.4987 7.40315 17.4987 9.33398C17.4987 11.2707 15.9295 12.834 13.9987 12.834C12.0679 12.834 10.4987 11.2707 10.4987 9.33398C10.4987 7.40315 12.0679 5.83398 13.9987 5.83398ZM13.9987 22.4007C11.0762 22.4007 8.50953 20.9073 6.9987 18.644C7.02786 16.3282 11.6712 15.0507 13.9987 15.0507C16.3262 15.0507 20.9637 16.3282 20.9987 18.644C19.4879 20.9073 16.9212 22.4007 13.9987 22.4007Z" fill="#E12A37"/>
</g>
<defs>
<clipPath id="clip0_670_564">
<rect width="28" height="28" fill="white"/>
</clipPath>
</defs>
</svg>
