<svg width="28" height="28" viewBox="0 0 28 28" fill="none" xmlns="http://www.w3.org/2000/svg">
<path d="M6.05568 7.44302C5.83401 7.44302 5.60068 7.34969 5.43734 7.18635C5.09901 6.84802 5.09901 6.28802 5.43734 5.94969L9.67234 1.71469C10.0107 1.37635 10.5707 1.37635 10.909 1.71469C11.2473 2.05302 11.2473 2.61302 10.909 2.95135L6.67401 7.18635C6.49901 7.34969 6.27734 7.44302 6.05568 7.44302Z" fill="#7F7F7F"/>
<path d="M21.9469 7.44302C21.7253 7.44302 21.5036 7.36135 21.3286 7.18635L17.0936 2.95135C16.7553 2.61302 16.7553 2.05302 17.0936 1.71469C17.4319 1.37635 17.9919 1.37635 18.3303 1.71469L22.5653 5.94969C22.9036 6.28802 22.9036 6.84802 22.5653 7.18635C22.4019 7.34969 22.1686 7.44302 21.9469 7.44302Z" fill="#7F7F7F"/>
<path d="M23.577 12.3659C23.4954 12.3659 23.4137 12.3659 23.332 12.3659H23.0637H4.66536C3.8487 12.3776 2.91536 12.3776 2.2387 11.7009C1.70203 11.1759 1.45703 10.3592 1.45703 9.15755C1.45703 5.94922 3.80203 5.94922 4.92203 5.94922H23.0754C24.1954 5.94922 26.5404 5.94922 26.5404 9.15755C26.5404 10.3709 26.2954 11.1759 25.7587 11.7009C25.152 12.3076 24.3354 12.3659 23.577 12.3659ZM4.92203 10.6159H23.3437C23.8687 10.6276 24.3587 10.6276 24.522 10.4642C24.6037 10.3826 24.7787 10.1026 24.7787 9.15755C24.7787 7.83922 24.452 7.69922 23.0637 7.69922H4.92203C3.5337 7.69922 3.20703 7.83922 3.20703 9.15755C3.20703 10.1026 3.3937 10.3826 3.4637 10.4642C3.62703 10.6159 4.1287 10.6159 4.64203 10.6159H4.92203Z" fill="#7F7F7F"/>
<path d="M11.3867 21.3506C10.9084 21.3506 10.5117 20.954 10.5117 20.4756V16.334C10.5117 15.8557 10.9084 15.459 11.3867 15.459C11.8651 15.459 12.2617 15.8557 12.2617 16.334V20.4756C12.2617 20.9656 11.8651 21.3506 11.3867 21.3506Z" fill="#7F7F7F"/>
<path d="M16.7539 21.3506C16.2756 21.3506 15.8789 20.954 15.8789 20.4756V16.334C15.8789 15.8557 16.2756 15.459 16.7539 15.459C17.2322 15.459 17.6289 15.8557 17.6289 16.334V20.4756C17.6289 20.9656 17.2322 21.3506 16.7539 21.3506Z" fill="#7F7F7F"/>
<path d="M17.3712 26.5419H10.3362C6.15955 26.5419 5.22622 24.0569 4.86455 21.8985L3.21955 11.8069C3.13788 11.3285 3.46455 10.8852 3.94288 10.8035C4.42122 10.7219 4.86455 11.0485 4.94622 11.5269L6.59122 21.6069C6.92955 23.6719 7.62955 24.7919 10.3362 24.7919H17.3712C20.3696 24.7919 20.7079 23.7419 21.0929 21.7119L23.0529 11.5035C23.1462 11.0252 23.6012 10.7102 24.0796 10.8152C24.5579 10.9085 24.8612 11.3635 24.7679 11.8419L22.8079 22.0502C22.3529 24.4185 21.5946 26.5419 17.3712 26.5419Z" fill="#7F7F7F"/>
</svg>
