<svg width="21" height="21" viewBox="0 0 21 21" fill="none" xmlns="http://www.w3.org/2000/svg">
<path d="M15.8532 19.0312C15.3282 19.0312 14.7944 18.9088 14.2869 18.655L11.4519 17.2375C10.8569 16.94 10.1394 16.94 9.53566 17.2375L6.70066 18.655C5.33566 19.3375 3.76066 19.075 2.69316 17.9812C1.62566 16.8875 1.38941 15.3125 2.10691 13.9563L7.44441 3.815C8.03941 2.6775 9.21191 1.96875 10.4982 1.96875C11.7844 1.96875 12.9569 2.6775 13.5519 3.815L18.8894 13.9563C19.5982 15.3125 19.3707 16.8875 18.3032 17.9812C17.6294 18.6725 16.7544 19.0312 15.8532 19.0312ZM10.4982 15.6975C11.0319 15.6975 11.5569 15.82 12.0382 16.0563L14.8732 17.4737C15.8969 17.99 16.8332 17.5962 17.3582 17.0538C17.8832 16.5112 18.2594 15.575 17.7257 14.56L12.3882 4.41875C12.0119 3.71 11.3032 3.28125 10.4982 3.28125C9.69316 3.28125 8.98441 3.71 8.60816 4.4275L3.27066 14.5687C2.73691 15.5837 3.10441 16.5288 3.63816 17.0625C4.17191 17.5962 5.09941 17.99 6.12316 17.4825L8.95816 16.065C9.43941 15.82 9.96441 15.6975 10.4982 15.6975Z" fill="#7F7F7F"/>
</svg>
