<svg width="24" height="24" viewBox="0 0 24 24" fill="none" xmlns="http://www.w3.org/2000/svg">
<path d="M12 22.75C6.07 22.75 1.25 17.93 1.25 12C1.25 6.07 6.07 1.25 12 1.25C17.93 1.25 22.75 6.07 22.75 12C22.75 17.93 17.93 22.75 12 22.75ZM12 2.75C6.9 2.75 2.75 6.9 2.75 12C2.75 17.1 6.9 21.25 12 21.25C17.1 21.25 21.25 17.1 21.25 12C21.25 6.9 17.1 2.75 12 2.75Z" fill="#E12A37"/>
<path d="M15.0022 16C14.4422 16 13.9922 15.55 13.9922 15C13.9922 14.45 14.4422 14 14.9922 14C15.5422 14 15.9922 14.45 15.9922 15C15.9922 15.55 15.5522 16 15.0022 16Z" fill="#E12A37"/>
<path d="M9.01001 10C8.45001 10 8 9.55 8 9C8 8.45 8.45 8 9 8C9.55 8 10 8.45 10 9C10 9.55 9.56001 10 9.01001 10Z" fill="#E12A37"/>
<path d="M9.00144 15.7495C8.81144 15.7495 8.62141 15.6795 8.47141 15.5295C8.18141 15.2395 8.18141 14.7595 8.47141 14.4695L14.4714 8.46945C14.7614 8.17945 15.2415 8.17945 15.5315 8.46945C15.8215 8.75945 15.8215 9.23951 15.5315 9.52951L9.53146 15.5295C9.38146 15.6795 9.19144 15.7495 9.00144 15.7495Z" fill="#E12A37"/>
</svg>
