<svg width="28" height="28" viewBox="0 0 28 28" fill="none" xmlns="http://www.w3.org/2000/svg">
<path d="M13.9987 25.2589C13.637 25.2589 13.287 25.2122 12.9954 25.1072C8.5387 23.5789 1.45703 18.1539 1.45703 10.1389C1.45703 6.05552 4.7587 2.74219 8.8187 2.74219C10.7904 2.74219 12.6337 3.51219 13.9987 4.88885C15.3637 3.51219 17.207 2.74219 19.1787 2.74219C23.2387 2.74219 26.5404 6.06719 26.5404 10.1389C26.5404 18.1655 19.4587 23.5789 15.002 25.1072C14.7104 25.2122 14.3604 25.2589 13.9987 25.2589ZM8.8187 4.49219C5.72703 4.49219 3.20703 7.02385 3.20703 10.1389C3.20703 18.1072 10.872 22.5405 13.567 23.4622C13.777 23.5322 14.232 23.5322 14.442 23.4622C17.1254 22.5405 24.802 18.1189 24.802 10.1389C24.802 7.02385 22.282 4.49219 19.1904 4.49219C17.417 4.49219 15.772 5.32052 14.7104 6.75552C14.3837 7.19885 13.637 7.19885 13.3104 6.75552C12.2254 5.30885 10.592 4.49219 8.8187 4.49219Z" fill="#7F7F7F"/>
</svg>
