<svg width="28" height="28" viewBox="0 0 28 28" fill="none" xmlns="http://www.w3.org/2000/svg">
<path d="M13.9983 15.5163C13.8466 15.5163 13.695 15.4813 13.555 15.3997L3.25331 9.438C2.84497 9.193 2.69331 8.65634 2.93831 8.23634C3.18331 7.81634 3.71997 7.67634 4.13997 7.92134L13.9983 13.6263L23.7983 7.95634C24.2183 7.71134 24.755 7.863 25 8.27134C25.245 8.69134 25.0933 9.228 24.685 9.473L14.4533 15.3997C14.3016 15.4697 14.15 15.5163 13.9983 15.5163Z" fill="#7F7F7F"/>
<path d="M14 26.0875C13.5217 26.0875 13.125 25.6909 13.125 25.2125V14.6309C13.125 14.1525 13.5217 13.7559 14 13.7559C14.4783 13.7559 14.875 14.1525 14.875 14.6309V25.2125C14.875 25.6909 14.4783 26.0875 14 26.0875Z" fill="#7F7F7F"/>
<path d="M14.0007 26.5423C12.9741 26.5423 11.9591 26.3207 11.1541 25.8773L4.92406 22.4123C3.2324 21.479 1.91406 19.2273 1.91406 17.2907V10.699C1.91406 8.76232 3.2324 6.52232 4.92406 5.57732L11.1541 2.12398C12.7524 1.23732 15.2491 1.23732 16.8474 2.12398L23.0774 5.58898C24.7691 6.52232 26.0874 8.77398 26.0874 10.7107V17.3023C26.0874 19.239 24.7691 21.479 23.0774 22.424L16.8474 25.8773C16.0424 26.3207 15.0274 26.5423 14.0007 26.5423ZM14.0007 3.20898C13.2657 3.20898 12.5424 3.36065 12.0057 3.65232L5.77573 7.11732C4.65573 7.73565 3.66406 9.41565 3.66406 10.699V17.2907C3.66406 18.574 4.65573 20.254 5.77573 20.884L12.0057 24.349C13.0674 24.944 14.9341 24.944 15.9957 24.349L22.2257 20.884C23.3457 20.254 24.3374 18.5857 24.3374 17.2907V10.699C24.3374 9.41565 23.3457 7.73565 22.2257 7.10565L15.9957 3.64065C15.4591 3.36065 14.7357 3.20898 14.0007 3.20898Z" fill="#7F7F7F"/>
</svg>
