<svg width="25" height="25" viewBox="0 0 25 25" fill="none" xmlns="http://www.w3.org/2000/svg">
<path d="M11.9779 22.6569C6.09245 22.6569 1.30078 17.8652 1.30078 11.9798C1.30078 6.0944 6.09245 1.30273 11.9779 1.30273C17.8633 1.30273 22.6549 6.0944 22.6549 11.9798C22.6549 17.8652 17.8633 22.6569 11.9779 22.6569ZM11.9779 2.86523C6.94661 2.86523 2.86328 6.95898 2.86328 11.9798C2.86328 17.0007 6.94661 21.0944 11.9779 21.0944C17.0091 21.0944 21.0924 17.0007 21.0924 11.9798C21.0924 6.95898 17.0091 2.86523 11.9779 2.86523Z" fill="#7F7F7F"/>
<path d="M22.9167 23.6979C22.7188 23.6979 22.5208 23.625 22.3646 23.4688L20.2813 21.3854C19.9792 21.0833 19.9792 20.5833 20.2813 20.2813C20.5833 19.9792 21.0833 19.9792 21.3854 20.2813L23.4688 22.3646C23.7708 22.6667 23.7708 23.1667 23.4688 23.4688C23.3125 23.625 23.1146 23.6979 22.9167 23.6979Z" fill="#7F7F7F"/>
</svg>
